 <svg width="24px" height="24px" viewBox="0 0 24 24" fill="none" xmlns="http://www.w3.org/2000/svg" preserveAspectRatio="none">
    <path
      d="M12.8751 11.1966C12.8569 11.0903 12.8442 10.9831 12.8373 10.8755C12.8495 8.99539 12.8195 7.11376 12.8886 5.23561C12.9914 2.43939 15.1608 0.238142 18.1173 0.0151743C20.6717 -0.177431 23.0966 1.47768 23.7978 4.17222C24.7919 7.9925 21.7709 11.3162 18.3659 11.2067C16.5538 11.1487 14.7384 11.1966 12.8751 11.1966ZM12.8771 12.8113C15.0164 12.8113 17.1237 12.7985 19.2304 12.8238C19.5805 12.828 19.9368 12.9744 20.2764 13.095C22.6336 13.9314 24.2185 16.3476 23.9754 18.7175C23.6852 21.5468 21.8208 23.5621 19.1629 23.9207C15.9219 24.3579 13.0388 22.0054 12.8928 18.7116C12.8065 16.7685 12.8769 14.8184 12.8769 12.8111L12.8771 12.8113ZM11.1996 12.7865C11.1401 15.112 11.2686 17.3756 10.9772 19.5831C10.6316 22.2021 8.08472 24.0776 5.46946 23.9975C2.73051 23.9139 0.471715 21.8961 0.0925517 19.1941C-0.390507 15.7518 2.15 12.7894 5.58846 12.7866C7.22994 12.7854 8.87142 12.7854 10.5129 12.7866H11.1994L11.1996 12.7865ZM11.1421 11.1966C9.18955 11.1966 7.3093 11.2129 5.42974 11.186C4.91341 11.1777 4.40054 11.0994 3.90496 10.9532C1.52294 10.2461 -0.175046 7.75687 0.0144202 5.30229C0.225893 2.56239 2.20551 0.44419 4.80398 0.060061C8.17773 -0.43872 11.2439 2.30736 11.151 5.69221C11.1012 7.49813 11.1423 9.30713 11.1423 11.1965L11.1421 11.1966Z"
      fill="#518fc5"
    />
  </svg>
